<mxfile host="app.diagrams.net" modified="2024-04-02T21:16:01.224Z" agent="Mozilla/5.0 (X11; Ubuntu; Linux x86_64; rv:124.0) Gecko/20100101 Firefox/124.0" version="24.0.5" etag="egDXa8fUrN1-GM2DY6EZ" type="github">
  <diagram name="Page-1" id="LUco7OHTWNjswqlT9Dwo">
    <mxGraphModel>
      <root>
        <mxCell id="0" />
        <mxCell id="1" parent="0" />
      </root>
    </mxGraphModel>
  </diagram>
</mxfile>
